<svg id="space_dashboard_black_24dp" xmlns="http://www.w3.org/2000/svg" width="24" height="24" viewBox="0 0 24 24">
  <rect id="Rectangle_1872" data-name="Rectangle 1872" width="24" height="24" fill="none"/>
  <path id="Tracé_19674" data-name="Tracé 19674" d="M11,21H5a2.006,2.006,0,0,1-2-2V5A2.006,2.006,0,0,1,5,3h6Zm2,0h6a2.006,2.006,0,0,0,2-2V12H13Zm8-11V5a2.006,2.006,0,0,0-2-2H13v7Z" fill="#5c626a"/>
  <path id="Tracé_19683" data-name="Tracé 19683" d="M11,21H5a2.006,2.006,0,0,1-2-2V5A2.006,2.006,0,0,1,5,3h6Zm2,0h6a2.006,2.006,0,0,0,2-2V12H13Zm8-11V5a2.006,2.006,0,0,0-2-2H13v7Z" fill="#5c626a"/>
</svg>
