<svg class="Shape" viewBox="0 0 28.064 25.512">
  <path id="Shape" d="M 13.15506362915039 24.64290618896484 C 13.15506362915039 24.16280364990234 13.54761123657227 23.77350044250488 14.03171730041504 23.77350044250488 C 14.51687622070312 23.77350044250488 14.909423828125 24.16280364990234 14.909423828125 24.64290618896484 C 14.909423828125 25.12301063537598 14.51687622070312 25.51231384277344 14.03171730041504 25.51231384277344 C 13.54761123657227 25.51231384277344 13.15506362915039 25.12301063537598 13.15506362915039 24.64290618896484 Z M 20.17144966125488 24.30683326721191 C 20.17144966125488 23.98641586303711 20.43244743347168 23.72653198242188 20.75553321838379 23.72653198242188 C 21.07862091064453 23.72653198242188 21.34066963195801 23.98641586303711 21.34066963195801 24.30683326721191 C 21.34066963195801 24.62725067138672 21.07862091064453 24.88608932495117 20.75553321838379 24.88608932495117 C 20.43244743347168 24.88608932495117 20.17144966125488 24.62725067138672 20.17144966125488 24.30683326721191 Z M 6.723816394805908 24.30683326721191 C 6.723816394805908 23.98641586303711 6.985865116119385 23.72653198242188 7.307900905609131 23.72653198242188 C 7.630989551544189 23.72653198242188 7.893038272857666 23.98641586303711 7.893038272857666 24.30683326721191 C 7.893038272857666 24.62725067138672 7.630989551544189 24.88608932495117 7.307900905609131 24.88608932495117 C 6.985865116119385 24.88608932495117 6.723816394805908 24.62725067138672 6.723816394805908 24.30683326721191 Z M 17.97823715209961 21.0421257019043 C 17.97823715209961 20.56097793579102 18.37078285217285 20.17167663574219 18.8559398651123 20.17167663574219 C 19.34004974365234 20.17167663574219 19.73259544372559 20.56097793579102 19.73259544372559 21.0421257019043 C 19.73259544372559 21.52223205566406 19.34004974365234 21.91153144836426 18.8559398651123 21.91153144836426 C 18.37078285217285 21.91153144836426 17.97823715209961 21.52223205566406 17.97823715209961 21.0421257019043 Z M 8.331891059875488 21.0421257019043 C 8.331891059875488 20.56097793579102 8.724437713623047 20.17167663574219 9.208544731140137 20.17167663574219 C 9.692651748657227 20.17167663574219 10.08519840240479 20.56097793579102 10.08519840240479 21.0421257019043 C 10.08519840240479 21.52223205566406 9.692651748657227 21.91153144836426 9.208544731140137 21.91153144836426 C 8.724437713623047 21.91153144836426 8.331891059875488 21.52223205566406 8.331891059875488 21.0421257019043 Z M 12.8624963760376 20.29379081726074 C 12.8624963760376 19.65399932861328 13.38659286499023 19.13423347473145 14.03171730041504 19.13423347473145 C 14.67789459228516 19.13423347473145 15.20094013214111 19.65399932861328 15.20094013214111 20.29379081726074 C 15.20094013214111 20.93462562561035 14.67789459228516 21.45438957214355 14.03171730041504 21.45438957214355 C 13.38659286499023 21.45438957214355 12.8624963760376 20.93462562561035 12.8624963760376 20.29379081726074 Z M 23.53493690490723 18.70005226135254 C 23.53493690490723 18.21890640258789 23.92748260498047 17.82960319519043 24.41264152526855 17.82960319519043 C 24.8967456817627 17.82960319519043 25.2892951965332 18.21890640258789 25.2892951965332 18.70005226135254 C 25.2892951965332 19.18015670776367 24.8967456817627 19.5694580078125 24.41264152526855 19.5694580078125 C 23.92748260498047 19.5694580078125 23.53493690490723 19.18015670776367 23.53493690490723 18.70005226135254 Z M 2.775192260742188 18.70005226135254 C 2.775192260742188 18.21890640258789 3.167739629745483 17.82960319519043 3.651845932006836 17.82960319519043 C 3.884427309036255 17.82960319519043 4.107537269592285 17.92144966125488 4.271712303161621 18.08426666259766 C 4.436939716339111 18.24812889099121 4.528499126434326 18.46939468383789 4.528499126434326 18.70005226135254 C 4.528499126434326 18.93071174621582 4.436939716339111 19.15197944641113 4.271712303161621 19.31479644775391 C 4.107537269592285 19.47761344909668 3.884427309036255 19.5694580078125 3.651845932006836 19.5694580078125 C 3.167739629745483 19.5694580078125 2.775192260742188 19.18015670776367 2.775192260742188 18.70005226135254 Z M 14.61685371398926 16.81512451171875 C 14.61685371398926 15.85491466522217 15.40194892883301 15.07526779174805 16.37121391296387 15.07526779174805 C 17.33942794799805 15.07526779174805 18.12452125549316 15.85491466522217 18.12452125549316 16.81512451171875 C 18.12452125549316 17.77637481689453 17.33942794799805 18.55497741699219 16.37121391296387 18.55497741699219 C 15.40194892883301 18.55497741699219 14.61685371398926 17.77637481689453 14.61685371398926 16.81512451171875 Z M 9.93891429901123 16.81512451171875 C 9.93891429901123 15.85491466522217 10.72505950927734 15.07526779174805 11.69327259063721 15.07526779174805 C 12.66253852844238 15.07526779174805 13.44763278961182 15.85491466522217 13.44763278961182 16.81512451171875 C 13.44763278961182 17.77637481689453 12.66253852844238 18.55497741699219 11.69327259063721 18.55497741699219 C 10.72505950927734 18.55497741699219 9.93891429901123 17.77637481689453 9.93891429901123 16.81512451171875 Z M 19.44528961181641 16.52497291564941 C 19.44528961181641 15.88518142700195 19.96833419799805 15.36541843414307 20.61451148986816 15.36541843414307 C 21.25963592529297 15.36541843414307 21.78373336791992 15.88518142700195 21.78373336791992 16.52497291564941 C 21.78373336791992 17.16580772399902 21.25963592529297 17.68452835083008 20.61451148986816 17.68452835083008 C 19.96833419799805 17.68452835083008 19.44528961181641 17.16580772399902 19.44528961181641 16.52497291564941 Z M 6.280753612518311 16.52497291564941 C 6.280753612518311 15.88518142700195 6.803798675537109 15.36541843414307 7.449975490570068 15.36541843414307 C 8.096153259277344 15.36541843414307 8.619197845458984 15.88518142700195 8.619197845458984 16.52497291564941 C 8.619197845458984 17.16580772399902 8.096153259277344 17.68452835083008 7.449975490570068 17.68452835083008 C 6.803798675537109 17.68452835083008 6.280753612518311 17.16580772399902 6.280753612518311 16.52497291564941 Z M 16.95529937744141 12.75615692138672 C 16.95529937744141 11.79594898223877 17.74039268493652 11.01734447479248 18.70965766906738 11.01734447479248 C 19.67787170410156 11.01734447479248 20.46296501159668 11.79594898223877 20.46296501159668 12.75615692138672 C 20.46296501159668 13.71740818023682 19.67787170410156 14.49601078033447 18.70965766906738 14.49601078033447 C 17.74039268493652 14.49601078033447 16.95529937744141 13.71740818023682 16.95529937744141 12.75615692138672 Z M 7.600470066070557 12.75615692138672 C 7.600470066070557 11.79594898223877 8.385563850402832 11.01734447479248 9.354828834533691 11.01734447479248 C 10.32304096221924 11.01734447479248 11.1091890335083 11.79594898223877 11.1091890335083 12.75615692138672 C 11.1091890335083 13.71740818023682 10.32304096221924 14.49601078033447 9.354828834533691 14.49601078033447 C 8.385563850402832 14.49601078033447 7.600470066070557 13.71740818023682 7.600470066070557 12.75615692138672 Z M 22.80246162414551 12.75615692138672 C 22.80246162414551 12.27605152130127 23.19500923156738 11.88675022125244 23.67911529541016 11.88675022125244 C 24.1632194519043 11.88675022125244 24.55576705932617 12.27605152130127 24.55576705932617 12.75615692138672 C 24.55576705932617 13.23626041412354 24.1632194519043 13.62660598754883 23.67911529541016 13.62660598754883 C 23.19500923156738 13.62660598754883 22.80246162414551 13.23626041412354 22.80246162414551 12.75615692138672 Z M 3.507666349411011 12.75615692138672 C 3.507666349411011 12.27605152130127 3.900213479995728 11.88675022125244 4.385372161865234 11.88675022125244 C 4.869478225708008 11.88675022125244 5.262025356292725 12.27605152130127 5.262025356292725 12.75615692138672 C 5.262025356292725 13.23626041412354 4.869478225708008 13.62660598754883 4.385372161865234 13.62660598754883 C 3.900213479995728 13.62660598754883 3.507666349411011 13.23626041412354 3.507666349411011 12.75615692138672 Z M 26.89526557922363 12.75615692138672 C 26.89526557922363 12.4357385635376 27.1562614440918 12.17690086364746 27.47934913635254 12.17690086364746 C 27.80243873596191 12.17690086364746 28.06448745727539 12.4357385635376 28.06448745727539 12.75615692138672 C 28.06448745727539 13.07657337188721 27.80243873596191 13.33645629882812 27.47934913635254 13.33645629882812 C 27.1562614440918 13.33645629882812 26.89526557922363 13.07657337188721 26.89526557922363 12.75615692138672 Z M 0 12.75615692138672 C 0 12.4357385635376 0.2620488703250885 12.17690086364746 0.5851372480392456 12.17690086364746 C 0.9071731567382812 12.17690086364746 1.169222116470337 12.4357385635376 1.169222116470337 12.75615692138672 C 1.169222116470337 13.07657337188721 0.9071731567382812 13.33645629882812 0.5851372480392456 13.33645629882812 C 0.2620488703250885 13.33645629882812 0 13.07657337188721 0 12.75615692138672 Z M 14.61685371398926 8.697189331054688 C 14.61685371398926 7.73698091506958 15.40194892883301 6.958377361297607 16.37121391296387 6.958377361297607 C 17.33942794799805 6.958377361297607 18.12452125549316 7.73698091506958 18.12452125549316 8.697189331054688 C 18.12452125549316 9.658440589904785 17.33942794799805 10.43704509735107 16.37121391296387 10.43704509735107 C 15.40194892883301 10.43704509735107 14.61685371398926 9.658440589904785 14.61685371398926 8.697189331054688 Z M 9.93891429901123 8.697189331054688 C 9.93891429901123 7.73698091506958 10.72505950927734 6.958377361297607 11.69327259063721 6.958377361297607 C 12.66253852844238 6.958377361297607 13.44763278961182 7.73698091506958 13.44763278961182 8.697189331054688 C 13.44763278961182 9.658440589904785 12.66253852844238 10.43704509735107 11.69327259063721 10.43704509735107 C 10.72505950927734 10.43704509735107 9.93891429901123 9.658440589904785 9.93891429901123 8.697189331054688 Z M 19.44528961181641 8.987339019775391 C 19.44528961181641 8.346504211425781 19.96833419799805 7.827783584594727 20.61451148986816 7.827783584594727 C 21.25963592529297 7.827783584594727 21.78373336791992 8.346504211425781 21.78373336791992 8.987339019775391 C 21.78373336791992 9.628172874450684 21.25963592529297 10.14689540863037 20.61451148986816 10.14689540863037 C 19.96833419799805 10.14689540863037 19.44528961181641 9.628172874450684 19.44528961181641 8.987339019775391 Z M 6.280753612518311 8.987339019775391 C 6.280753612518311 8.346504211425781 6.803798675537109 7.827783584594727 7.449975490570068 7.827783584594727 C 8.096153259277344 7.827783584594727 8.619197845458984 8.346504211425781 8.619197845458984 8.987339019775391 C 8.619197845458984 9.628172874450684 8.096153259277344 10.14689540863037 7.449975490570068 10.14689540863037 C 6.803798675537109 10.14689540863037 6.280753612518311 9.628172874450684 6.280753612518311 8.987339019775391 Z M 23.53493690490723 6.813302993774414 C 23.53493690490723 6.333198547363281 23.92748260498047 5.942852973937988 24.41264152526855 5.942852973937988 C 24.8967456817627 5.942852973937988 25.2892951965332 6.333198547363281 25.2892951965332 6.813302993774414 C 25.2892951965332 7.293406963348389 24.8967456817627 7.682709217071533 24.41264152526855 7.682709217071533 C 23.92748260498047 7.682709217071533 23.53493690490723 7.293406963348389 23.53493690490723 6.813302993774414 Z M 2.775192260742188 6.813302993774414 C 2.775192260742188 6.333198547363281 3.167739629745483 5.942852973937988 3.651845932006836 5.942852973937988 C 3.884427309036255 5.942852973937988 4.107537269592285 6.034699440002441 4.271712303161621 6.19856071472168 C 4.436939716339111 6.36137866973877 4.528499126434326 6.582643985748291 4.528499126434326 6.813302993774414 C 4.528499126434326 7.043961524963379 4.436939716339111 7.2652268409729 4.271712303161621 7.42804479598999 C 4.107537269592285 7.59086275100708 3.884427309036255 7.682709217071533 3.651845932006836 7.682709217071533 C 3.167739629745483 7.682709217071533 2.775192260742188 7.293406963348389 2.775192260742188 6.813302993774414 Z M 12.8624963760376 5.218522548675537 C 12.8624963760376 4.577687740325928 13.38659286499023 4.058966636657715 14.03171730041504 4.058966636657715 C 14.67789459228516 4.058966636657715 15.20094013214111 4.577687740325928 15.20094013214111 5.218522548675537 C 15.20094013214111 5.859356880187988 14.67789459228516 6.378078460693359 14.03171730041504 6.378078460693359 C 13.38659286499023 6.378078460693359 12.8624963760376 5.859356880187988 12.8624963760376 5.218522548675537 Z M 17.97823715209961 4.471230030059814 C 17.97823715209961 4.24057149887085 18.07084846496582 4.019306182861328 18.23502349853516 3.856487989425659 C 18.4002513885498 3.692626237869263 18.62335968017578 3.601824283599854 18.8559398651123 3.601824283599854 C 19.08852195739746 3.601824283599854 19.3116340637207 3.692626237869263 19.47580909729004 3.856487989425659 C 19.63998603820801 4.019306182861328 19.73259544372559 4.24057149887085 19.73259544372559 4.471230030059814 C 19.73259544372559 4.951333999633789 19.34004974365234 5.340635776519775 18.8559398651123 5.340635776519775 C 18.37078285217285 5.340635776519775 17.97823715209961 4.951333999633789 17.97823715209961 4.471230030059814 Z M 8.331891059875488 4.471230030059814 C 8.331891059875488 4.24057149887085 8.423450469970703 4.019306182861328 8.588678359985352 3.856487989425659 C 8.752853393554688 3.692626237869263 8.975963592529297 3.601824283599854 9.208544731140137 3.601824283599854 C 9.441125869750977 3.601824283599854 9.664236068725586 3.692626237869263 9.828411102294922 3.856487989425659 C 9.99363899230957 4.019306182861328 10.08519840240479 4.24057149887085 10.08519840240479 4.471230030059814 C 10.08519840240479 4.951333999633789 9.692651748657227 5.340635776519775 9.208544731140137 5.340635776519775 C 8.724437713623047 5.340635776519775 8.331891059875488 4.951333999633789 8.331891059875488 4.471230030059814 Z M 20.17144966125488 1.206522464752197 C 20.17144966125488 0.8861050605773926 20.43244743347168 0.6262227296829224 20.75553321838379 0.6262227296829224 C 21.07862091064453 0.6262227296829224 21.34066963195801 0.8861050605773926 21.34066963195801 1.206522464752197 C 21.34066963195801 1.525896072387695 21.07862091064453 1.785778403282166 20.75553321838379 1.785778403282166 C 20.43244743347168 1.785778403282166 20.17144966125488 1.525896072387695 20.17144966125488 1.206522464752197 Z M 6.723816394805908 1.206522464752197 C 6.723816394805908 0.8861050605773926 6.985865116119385 0.6262227296829224 7.307900905609131 0.6262227296829224 C 7.630989551544189 0.6262227296829224 7.893038272857666 0.8861050605773926 7.893038272857666 1.206522464752197 C 7.893038272857666 1.525896072387695 7.630989551544189 1.785778403282166 7.307900905609131 1.785778403282166 C 6.985865116119385 1.785778403282166 6.723816394805908 1.525896072387695 6.723816394805908 1.206522464752197 Z M 13.15506362915039 0.8694058656692505 C 13.15506362915039 0.3893017470836639 13.54761123657227 0 14.03171730041504 0 C 14.51687622070312 0 14.909423828125 0.3893017470836639 14.909423828125 0.8694058656692505 C 14.909423828125 1.350553512573242 14.51687622070312 1.739855289459229 14.03171730041504 1.739855289459229 C 13.54761123657227 1.739855289459229 13.15506362915039 1.350553512573242 13.15506362915039 0.8694058656692505 Z">
  </path>
</svg>