<svg id="token_black_24dp" xmlns="http://www.w3.org/2000/svg" width="24" height="24" viewBox="0 0 24 24">
  <rect id="Rectangle_1875" data-name="Rectangle 1875" width="24" height="24" fill="none"/>
  <path id="Tracé_19678" data-name="Tracé 19678" d="M19.97,6.43,12,2,4.03,6.43,9.1,9.24a4.011,4.011,0,0,1,5.8,0ZM10,12a2,2,0,1,1,2,2A2.006,2.006,0,0,1,10,12Zm1,9.44L3,17V8.14l5.13,2.85A3.73,3.73,0,0,0,8,12a3.992,3.992,0,0,0,3,3.87Zm2,0V15.87A3.992,3.992,0,0,0,16,12a3.73,3.73,0,0,0-.13-1.01L21,8.14V17Z" fill="#5C626A"/>
</svg>
