<svg id="space_dashboard_black_24dp" xmlns="http://www.w3.org/2000/svg" width="36" height="36" viewBox="0 0 36 36">
  <rect id="Rectangle_1872" data-name="Rectangle 1872" width="36" height="36" fill="none"/>
  <path id="Tracé_19674" data-name="Tracé 19674" d="M15,30H6a3.009,3.009,0,0,1-3-3V6A3.009,3.009,0,0,1,6,3h9Zm3,0h9a3.009,3.009,0,0,0,3-3V16.5H18ZM30,13.5V6a3.009,3.009,0,0,0-3-3H18V13.5Z" transform="translate(1.5 1.5)" fill="#242c36"/>
  <path id="Tracé_19683" data-name="Tracé 19683" d="M15,30H6a3.009,3.009,0,0,1-3-3V6A3.009,3.009,0,0,1,6,3h9Zm3,0h9a3.009,3.009,0,0,0,3-3V16.5H18ZM30,13.5V6a3.009,3.009,0,0,0-3-3H18V13.5Z" transform="translate(1.5 1.5)" fill="#242c36"/>
</svg>
