<svg id="downloading_black_24dp" xmlns="http://www.w3.org/2000/svg" width="24" height="24" viewBox="0 0 24 24">
  <g id="Groupe_14230" data-name="Groupe 14230">
    <rect id="Rectangle_2479" data-name="Rectangle 2479" width="24" height="24" fill="none"/>
  </g>
  <g id="Groupe_14232" data-name="Groupe 14232">
    <g id="Groupe_14231" data-name="Groupe 14231">
      <path id="Tracé_42166" data-name="Tracé 42166" d="M18.32,4.26A9.949,9.949,0,0,0,13,2.05V4.07a7.941,7.941,0,0,1,3.9,1.62ZM19.93,11h2.02a9.949,9.949,0,0,0-2.21-5.32L18.31,7.1A7.941,7.941,0,0,1,19.93,11Zm-1.62,5.9,1.43,1.43a9.981,9.981,0,0,0,2.21-5.32H19.93A7.945,7.945,0,0,1,18.31,16.9ZM13,19.93v2.02a9.949,9.949,0,0,0,5.32-2.21l-1.43-1.43A7.868,7.868,0,0,1,13,19.93ZM13,12V7H11v5H7l5,5,5-5Zm-2,7.93v2.02a10,10,0,0,1,0-19.9V4.07a7.992,7.992,0,0,0,0,15.86Z" fill="#fff"/>
    </g>
  </g>
</svg>
