<svg xmlns="http://www.w3.org/2000/svg" width="55.169" height="48" viewBox="0 0 55.169 48">
  <g id="Groupe_53079" data-name="Groupe 53079" transform="translate(0 0)">
    <path id="Tracé_42431" data-name="Tracé 42431" d="M-86.252-73.489a3.833,3.833,0,0,1-2.03,2.692,4.622,4.622,0,0,1-1.333.376.6.6,0,0,0-.605.523q-1.5,5.525-3.038,11.043c-.53,1.918-1.073,3.832-1.584,5.754a.5.5,0,0,1-.584.453q-18.422-.012-36.844,0c-.37,0-.477-.149-.566-.474-1.524-5.548-3.068-11.09-4.582-16.641a.768.768,0,0,0-.77-.675,3.629,3.629,0,0,1-3.233-3.63,3.7,3.7,0,0,1,3.153-3.612,3.62,3.62,0,0,1,4.087,2.847,8.892,8.892,0,0,1,.023,1.544c.006.168.039.422.149.486,2.852,1.691,5.715,3.361,8.62,5.061l9.523-15.781a3.636,3.636,0,0,1-1.608-3.467,3.549,3.549,0,0,1,1.287-2.405,3.668,3.668,0,0,1,5.015.287c1.521,1.641,1.309,3.663-.618,5.606l9.5,15.759,1.707-1q3.368-1.968,6.739-3.932c.279-.162.41-.3.331-.668a3.637,3.637,0,0,1,2.764-4.282,3.647,3.647,0,0,1,4.294,2.446c.065.2.133.406.2.609Z" transform="translate(141.421 90.25)" fill="#5c626a"/>
    <path id="Tracé_42432" data-name="Tracé 42432" d="M-24.083,509.6q-8.674,0-17.348,0a3.149,3.149,0,0,1-3.359-2.432A3.1,3.1,0,0,1-41.7,503.4c.107-.005.215,0,.323,0q17.295,0,34.589,0a3.25,3.25,0,0,1,3.033,1.493A3.092,3.092,0,0,1-6.52,509.59c-1.256.031-2.514.006-3.771.006Z" transform="translate(51.667 -461.605)" fill="#5c626a"/>
  </g>
</svg>
