<svg xmlns="http://www.w3.org/2000/svg" width="17.272" height="18" viewBox="0 0 17.272 18">
  <path id="Tracé_42553" data-name="Tracé 42553" d="M26.8,9.231a.527.527,0,0,1,0-.466l.671-1.373a1.563,1.563,0,0,0-.674-2.075L25.445,4.6a.528.528,0,0,1-.274-.377l-.264-1.506a1.563,1.563,0,0,0-1.765-1.282l-1.514.214a.527.527,0,0,1-.443-.144L20.086.442a1.562,1.562,0,0,0-2.182,0L16.805,1.5a.528.528,0,0,1-.443.144l-1.514-.214a1.562,1.562,0,0,0-1.765,1.282l-.264,1.506a.528.528,0,0,1-.274.377l-1.35.716a1.563,1.563,0,0,0-.674,2.075l.671,1.373a.527.527,0,0,1,0,.466L10.52,10.6a1.563,1.563,0,0,0,.674,2.075l1.35.716a.527.527,0,0,1,.274.377l.264,1.506a1.562,1.562,0,0,0,1.54,1.3,1.606,1.606,0,0,0,.225-.016l1.514-.214a.527.527,0,0,1,.443.144l1.1,1.063a1.563,1.563,0,0,0,2.182,0l1.1-1.063a.528.528,0,0,1,.443-.144l1.514.214a1.562,1.562,0,0,0,1.765-1.282l.264-1.506a.528.528,0,0,1,.274-.377l1.35-.716a1.563,1.563,0,0,0,.674-2.075Zm-9.879-4.9a1.9,1.9,0,1,1-1.9,1.9A1.905,1.905,0,0,1,16.918,4.326Zm-.982,8.464a.519.519,0,1,1-.734-.734l6.851-6.851a.519.519,0,1,1,.734.734Zm5.135.879a1.9,1.9,0,1,1,1.9-1.9A1.905,1.905,0,0,1,21.071,13.67Z" transform="translate(-10.359 0.002)" fill="#5c626a"/>
</svg>
