<svg xmlns="http://www.w3.org/2000/svg" width="50.526" height="48" viewBox="0 0 50.526 48">
  <path id="Tracé_42201" data-name="Tracé 42201" d="M47.044,15.895,41.309,10.16a13.524,13.524,0,0,1,.808-2.905,3.538,3.538,0,0,0,.3-1.465A3.784,3.784,0,0,0,38.632,2,12.619,12.619,0,0,0,28.526,7.053H15.895A13.887,13.887,0,0,0,2,20.947C2,28.627,8.316,50,8.316,50H22.211V44.947h5.053V50H41.158L45.4,35.878,52.526,33.5V15.895ZM29.789,19.684H17.158V14.632H29.789Zm7.579,5.053a2.526,2.526,0,1,1,2.526-2.526A2.534,2.534,0,0,1,37.368,24.737Z" transform="translate(-2 -2)" fill="#5c626a"/>
</svg>
