<svg id="groups_black_24dp" xmlns="http://www.w3.org/2000/svg" width="36" height="36" viewBox="0 0 36 36">
  <rect id="Rectangle_1884" data-name="Rectangle 1884" width="36" height="36" fill="none"/>
  <g id="Groupe_14074" data-name="Groupe 14074" transform="translate(0 9)">
    <path id="Tracé_19688" data-name="Tracé 19688" d="M18,16.125a15.916,15.916,0,0,1,6.36,1.35A4.477,4.477,0,0,1,27,21.57V24H9V21.585a4.445,4.445,0,0,1,2.64-4.1A15.661,15.661,0,0,1,18,16.125ZM6,16.5a3,3,0,1,0-3-3A3.009,3.009,0,0,0,6,16.5Zm1.7,1.65A10.474,10.474,0,0,0,6,18a10.426,10.426,0,0,0-4.17.87A3.016,3.016,0,0,0,0,21.645V24H6.75V21.585A6.748,6.748,0,0,1,7.7,18.15ZM30,16.5a3,3,0,1,0-3-3A3.009,3.009,0,0,0,30,16.5Zm6,5.145a3.016,3.016,0,0,0-1.83-2.775,10.2,10.2,0,0,0-5.865-.72,6.748,6.748,0,0,1,.945,3.435V24H36ZM18,6a4.5,4.5,0,1,1-4.5,4.5A4.494,4.494,0,0,1,18,6Z" transform="translate(0 -6)" fill="#242c36"/>
  </g>
</svg>
