<svg xmlns="http://www.w3.org/2000/svg" width="24" height="24" viewBox="0 0 24 24">
  <path id="Tracé_42489" data-name="Tracé 42489" d="M720.78,1006.28a12,12,0,1,0,12,12A12,12,0,0,0,720.78,1006.28Zm-3.189,17.577h-2.5v-7.526h2.5Zm-.214-8.923a1.449,1.449,0,0,1-1.036.372h-.011a1.379,1.379,0,0,1-1-.372,1.249,1.249,0,0,1-.383-.935,1.213,1.213,0,0,1,.394-.93,1.447,1.447,0,0,1,1.025-.366,1.4,1.4,0,0,1,1,.36,1.271,1.271,0,0,1,.394.969A1.186,1.186,0,0,1,717.377,1014.934Zm9.239,8.923h-2.5v-4.022q0-1.7-1.262-1.7a1.224,1.224,0,0,0-.806.265,1.467,1.467,0,0,0-.569,1.256v4.2h-2.5q.023-3.4.023-5.284t-.023-2.242h2.5v1.07a2.557,2.557,0,0,1,2.265-1.251,2.69,2.69,0,0,1,2.084.862,3.626,3.626,0,0,1,.789,2.529Zm-5.138-6.433v-.023l-.011.023Z" transform="translate(-708.78 -1006.28)" fill="#2867b2"/>
</svg>
