<svg id="ms_vrt_pos" xmlns="http://www.w3.org/2000/svg" width="55.722" height="45.8" viewBox="0 0 55.722 45.8">
  <rect id="Rectangle_18989" data-name="Rectangle 18989" width="55.722" height="45.8" fill="none"/>
  <g id="Groupe_52747" data-name="Groupe 52747" transform="translate(5.748 5.747)">
    <path id="Tracé_42221" data-name="Tracé 42221" d="M363.58,343.2v-2.275a1.349,1.349,0,0,0-1.425-1.441,1.4,1.4,0,0,0-1.274.644,1.331,1.331,0,0,0-1.2-.644,1.2,1.2,0,0,0-1.061.538v-.447h-.789V343.2h.8V341.19a.848.848,0,0,1,.887-.963c.523,0,.789.341.789.955V343.2h.8V341.19a.855.855,0,0,1,.887-.963c.538,0,.8.341.8.955V343.2Zm4.443-1.812v-1.812h-.789v.44a1.375,1.375,0,0,0-1.145-.531,1.905,1.905,0,0,0,0,3.806,1.375,1.375,0,0,0,1.145-.531v.44h.788Zm-2.934,0a1.087,1.087,0,1,1,.3.821,1.1,1.1,0,0,1-.3-.821Zm19.806-1.907a2.043,2.043,0,0,1,.778.146,1.9,1.9,0,0,1,.619.4,1.836,1.836,0,0,1,.409.6,2.013,2.013,0,0,1,0,1.514,1.835,1.835,0,0,1-.409.6,1.9,1.9,0,0,1-.619.4,2.147,2.147,0,0,1-1.555,0,1.875,1.875,0,0,1-.617-.4,1.852,1.852,0,0,1-.407-.6,2.015,2.015,0,0,1,0-1.514,1.854,1.854,0,0,1,.407-.6,1.878,1.878,0,0,1,.617-.4,2.043,2.043,0,0,1,.778-.146Zm0,.746a1.176,1.176,0,0,0-.45.085,1.065,1.065,0,0,0-.359.238,1.111,1.111,0,0,0-.238.367,1.319,1.319,0,0,0,0,.942,1.11,1.11,0,0,0,.238.367,1.065,1.065,0,0,0,.36.238,1.233,1.233,0,0,0,.9,0,1.086,1.086,0,0,0,.361-.238,1.1,1.1,0,0,0,.24-.367,1.319,1.319,0,0,0,0-.942,1.1,1.1,0,0,0-.24-.367,1.087,1.087,0,0,0-.361-.238,1.177,1.177,0,0,0-.45-.085Zm-12.582,1.162a1.738,1.738,0,0,0-1.721-1.9,1.9,1.9,0,0,0,.053,3.806,2.2,2.2,0,0,0,1.486-.508l-.387-.584a1.727,1.727,0,0,1-1.054.379,1.007,1.007,0,0,1-1.084-.887H372.3c.008-.1.015-.2.015-.3Zm-2.7-.318a.933.933,0,0,1,.963-.879.9.9,0,0,1,.917.879Zm6.02-.569a2.336,2.336,0,0,0-1.13-.311c-.432,0-.69.159-.69.425,0,.243.273.311.614.356l.371.053c.789.114,1.266.447,1.266,1.084,0,.69-.607,1.183-1.653,1.183a2.615,2.615,0,0,1-1.569-.47l.371-.614a1.931,1.931,0,0,0,1.206.379c.538,0,.826-.159.826-.44,0-.2-.2-.318-.637-.379l-.372-.053c-.811-.114-1.251-.478-1.251-1.069,0-.72.591-1.16,1.509-1.16a2.71,2.71,0,0,1,1.478.379Zm3.789-.2h-1.289v1.638c0,.364.129.607.523.607a1.456,1.456,0,0,0,.7-.2l.227.675a1.853,1.853,0,0,1-.986.281c-.933,0-1.259-.5-1.259-1.342V340.3H376.6v-.72h.735v-1.1h.8v1.1h1.289Zm2.729-.811a1.684,1.684,0,0,1,.561.1l-.243.743a1.285,1.285,0,0,0-.493-.091c-.516,0-.773.334-.773.933V343.2h-.788v-3.624h.781v.44a1.069,1.069,0,0,1,.955-.531Zm5.459,3.188a.362.362,0,0,1,.143.028.372.372,0,0,1,.117.077.363.363,0,0,1,.079.115.355.355,0,0,1,0,.28.366.366,0,0,1-.079.114.377.377,0,0,1-.117.078.357.357,0,0,1-.143.029.367.367,0,0,1-.341-.221.355.355,0,0,1,0-.28.366.366,0,0,1,.078-.115.361.361,0,0,1,.117-.077.373.373,0,0,1,.145-.028Zm0,.642a.268.268,0,0,0,.109-.022.286.286,0,0,0,.088-.06.281.281,0,0,0-.088-.457.271.271,0,0,0-.109-.022.283.283,0,0,0-.111.022.276.276,0,0,0-.09.06.281.281,0,0,0,.2.48Zm.021-.45a.152.152,0,0,1,.1.029.1.1,0,0,1,.035.078.091.091,0,0,1-.028.068.133.133,0,0,1-.079.033l.11.126h-.086l-.1-.126h-.033v.126h-.072v-.335Zm-.083.063v.089h.082a.081.081,0,0,0,.045-.011.038.038,0,0,0,.017-.034.037.037,0,0,0-.017-.033.082.082,0,0,0-.045-.011Z" transform="translate(-350.21 -308.994)"/>
    <g id="Groupe_52746" data-name="Groupe 52746">
      <rect id="Rectangle_18990" data-name="Rectangle 18990" width="11.959" height="21.49" transform="translate(16.133 2.922)" fill="#7375cf"/>
      <path id="Tracé_42222" data-name="Tracé 42222" d="M354.646,274.484a13.643,13.643,0,0,1,5.22-10.745,13.667,13.667,0,1,0,0,21.49A13.643,13.643,0,0,1,354.646,274.484Z" transform="translate(-337.753 -260.816)" fill="#eb001b"/>
      <path id="Tracé_42223" data-name="Tracé 42223" d="M450.362,318.258v-.44h.177v-.09h-.452v.09h.177v.44Zm.877,0v-.53H451.1l-.159.365-.159-.365h-.139v.53h.1v-.4l.149.345h.1l.149-.346v.4Z" transform="translate(-407.441 -296.122)" fill="#00a2e5"/>
      <path id="Tracé_42224" data-name="Tracé 42224" d="M418.112,274.484A13.666,13.666,0,0,1,396,285.229a13.669,13.669,0,0,0,0-21.49,13.666,13.666,0,0,1,22.112,10.745Z" transform="translate(-373.887 -260.817)" fill="#00a2e5"/>
    </g>
  </g>
</svg>
