<svg id="mc_vrt_pos" xmlns="http://www.w3.org/2000/svg" width="55.731" height="45.714" viewBox="0 0 55.731 45.714">
  <rect id="Rectangle_18991" data-name="Rectangle 18991" width="55.731" height="45.714" fill="none"/>
  <g id="Groupe_52749" data-name="Groupe 52749" transform="translate(5.753 5.754)">
    <path id="Tracé_42225" data-name="Tracé 42225" d="M349.541,342.739v-2.277a1.351,1.351,0,0,0-1.427-1.442,1.405,1.405,0,0,0-1.275.645,1.333,1.333,0,0,0-1.2-.645,1.2,1.2,0,0,0-1.063.539v-.448h-.79v3.629h.8v-2.012a.849.849,0,0,1,.888-.964c.524,0,.79.342.79.957v2.019h.8v-2.012a.856.856,0,0,1,.888-.964c.539,0,.8.342.8.957v2.019Zm11.8-3.629h-1.291v-1.1h-.8v1.1h-.736v.721h.736v1.655c0,.843.326,1.344,1.26,1.344a1.854,1.854,0,0,0,.987-.281l-.228-.676a1.458,1.458,0,0,1-.7.2c-.395,0-.524-.243-.524-.607v-1.64h1.291Zm6.734-.091a1.07,1.07,0,0,0-.957.531v-.44h-.782v3.629h.79V340.7c0-.6.258-.934.774-.934a1.287,1.287,0,0,1,.493.091l.243-.744A1.688,1.688,0,0,0,368.072,339.019Zm-10.18.38a2.714,2.714,0,0,0-1.48-.38c-.919,0-1.511.44-1.511,1.162,0,.592.44.957,1.253,1.07l.372.053c.433.061.638.175.638.38,0,.281-.289.44-.827.44a1.933,1.933,0,0,1-1.207-.38l-.372.615a2.619,2.619,0,0,0,1.571.471c1.048,0,1.655-.494,1.655-1.184,0-.638-.478-.972-1.268-1.086l-.372-.053c-.342-.046-.615-.114-.615-.357,0-.266.258-.425.691-.425a2.339,2.339,0,0,1,1.131.311Zm21.15-.38a1.07,1.07,0,0,0-.957.531v-.44H377.3v3.629h.789V340.7c0-.6.258-.934.774-.934a1.287,1.287,0,0,1,.493.091l.243-.744A1.688,1.688,0,0,0,379.042,339.019Zm-10.173,1.905a1.833,1.833,0,0,0,1.936,1.906,1.9,1.9,0,0,0,1.306-.433l-.38-.638a1.6,1.6,0,0,1-.949.326,1.164,1.164,0,0,1,0-2.323,1.6,1.6,0,0,1,.949.326l.38-.638a1.9,1.9,0,0,0-1.306-.433,1.833,1.833,0,0,0-1.936,1.905Zm7.394,0v-1.814h-.79v.44a1.377,1.377,0,0,0-1.146-.531,1.908,1.908,0,0,0,0,3.811,1.377,1.377,0,0,0,1.146-.531v.44h.789Zm-2.938,0a1.089,1.089,0,1,1,.3.822,1.1,1.1,0,0,1-.3-.822Zm-9.528-1.905a1.907,1.907,0,0,0,.053,3.811,2.205,2.205,0,0,0,1.488-.509l-.387-.585a1.729,1.729,0,0,1-1.055.38,1.008,1.008,0,0,1-1.086-.888h2.695c.008-.1.015-.2.015-.3a1.74,1.74,0,0,0-1.723-1.905Zm-.015.706a.9.9,0,0,1,.919.881h-1.883a.934.934,0,0,1,.964-.881Zm19.807,1.2v-3.272h-.79v1.9a1.377,1.377,0,0,0-1.146-.531,1.908,1.908,0,0,0,0,3.811,1.377,1.377,0,0,0,1.146-.531v.44h.79Zm1.316,1.289a.362.362,0,0,1,.143.028.37.37,0,0,1,.117.077.364.364,0,0,1,.079.115.355.355,0,0,1,0,.28.366.366,0,0,1-.079.114.378.378,0,0,1-.117.078.358.358,0,0,1-.143.029.367.367,0,0,1-.341-.221.355.355,0,0,1,0-.28.366.366,0,0,1,.078-.115.36.36,0,0,1,.117-.077.372.372,0,0,1,.145-.028Zm0,.642a.268.268,0,0,0,.109-.022.286.286,0,0,0,.088-.06.283.283,0,0,0,0-.4.28.28,0,0,0-.088-.06.272.272,0,0,0-.109-.022.284.284,0,0,0-.111.022.277.277,0,0,0-.09.06.282.282,0,0,0,.2.48Zm.021-.45a.153.153,0,0,1,.1.029.1.1,0,0,1,.035.078.091.091,0,0,1-.028.068.133.133,0,0,1-.079.033l.11.126h-.086l-.1-.126h-.033v.126h-.072v-.335Zm-.083.063v.089h.082a.081.081,0,0,0,.045-.011.038.038,0,0,0,.017-.034.037.037,0,0,0-.017-.033.082.082,0,0,0-.045-.011Zm-4.192-1.543a1.089,1.089,0,1,1,.3.822A1.1,1.1,0,0,1,380.651,340.925Zm-26.662,0v-1.814h-.79v.44a1.377,1.377,0,0,0-1.146-.531,1.908,1.908,0,0,0,0,3.811,1.377,1.377,0,0,0,1.146-.531v.44h.79Zm-2.938,0a1.088,1.088,0,1,1,.3.822,1.1,1.1,0,0,1-.3-.822Z" transform="translate(-341.496 -308.533)" fill="#231f20"/>
    <g id="Groupe_52748" data-name="Groupe 52748">
      <rect id="Rectangle_18992" data-name="Rectangle 18992" width="11.959" height="21.49" transform="translate(16.133 2.922)" fill="#ff5f00"/>
      <path id="Tracé_42226" data-name="Tracé 42226" d="M354.646,274.616a13.643,13.643,0,0,1,5.22-10.745,13.667,13.667,0,1,0,0,21.49A13.643,13.643,0,0,1,354.646,274.616Z" transform="translate(-337.753 -260.949)" fill="#eb001b"/>
      <path id="Tracé_42227" data-name="Tracé 42227" d="M418.112,274.617A13.666,13.666,0,0,1,396,285.362a13.669,13.669,0,0,0,0-21.49,13.666,13.666,0,0,1,22.112,10.745Z" transform="translate(-373.887 -260.949)" fill="#f79e1b"/>
      <path id="Tracé_42228" data-name="Tracé 42228" d="M450.362,318.39v-.44h.177v-.09h-.452v.09h.177v.44Zm.877,0v-.53H451.1l-.159.365-.159-.365h-.139v.53h.1v-.4l.149.345h.1l.149-.346v.4Z" transform="translate(-407.441 -296.254)" fill="#f79e1b"/>
    </g>
  </g>
</svg>
