<svg xmlns="http://www.w3.org/2000/svg" width="17.999" height="17.099" viewBox="0 0 17.999 17.099">
  <path id="Tracé_42201" data-name="Tracé 42201" d="M18.046,6.95,16,4.907a4.818,4.818,0,0,1,.288-1.035A1.261,1.261,0,0,0,16.4,3.35,1.348,1.348,0,0,0,15.049,2a4.5,4.5,0,0,0-3.6,1.8H6.95A4.947,4.947,0,0,0,2,8.75C2,11.486,4.25,19.1,4.25,19.1H9.2V17.3H11v1.8h4.95l1.512-5.031L20,13.222V6.95ZM11.9,8.3H7.4V6.5h4.5Zm2.7,1.8a.9.9,0,1,1,.9-.9A.9.9,0,0,1,14.6,10.1Z" transform="translate(-2 -2)" fill="#242c36"/>
</svg>
