<svg class="Shape_dl" viewBox="0 0 42.097 42.097">
  <path id="Shape_dl" d="M 2.82426929473877 31.57211685180664 L 2.557915687561035 31.11288833618164 L 11.8963737487793 31.11288833618164 L 11.8963737487793 20.81233978271484 L 21.04769515991211 30.07961654663086 L 30.19901847839355 20.81233978271484 L 30.19901847839355 31.11288833618164 L 39.53862380981445 31.11288833618164 L 39.27227020263672 31.57211685180664 C 35.51691055297852 38.06449127197266 28.53430557250977 42.09653854370117 21.04769515991211 42.09653854370117 C 13.56223392486572 42.09653854370117 6.578481197357178 38.06449127197266 2.82426929473877 31.57211685180664 Z M 33.86023712158203 27.45166969299316 L 33.86023712158203 11.89522647857666 L 21.04769515991211 24.87079238891602 L 8.23630428314209 11.89522647857666 L 8.23630428314209 27.45166969299316 L 1.010307788848877 27.45166969299316 C 0.3467192649841309 25.37594604492188 0 23.2255973815918 0 21.04769515991211 C 0 9.44178581237793 9.44178581237793 0 21.04769515991211 0 C 32.65475463867188 0 42.09653854370117 9.44178581237793 42.09653854370117 21.04769515991211 C 42.09653854370117 23.2255973815918 41.74982070922852 25.37594604492188 41.08623123168945 27.45166969299316 L 33.86023712158203 27.45166969299316 Z">
  </path>
</svg>