<svg id="motion_photos_on_black_24dp" xmlns="http://www.w3.org/2000/svg" width="36" height="36" viewBox="0 0 36 36">
  <rect id="Rectangle_1874" data-name="Rectangle 1874" width="36" height="36" fill="none"/>
  <path id="Tracé_19677" data-name="Tracé 19677" d="M3.32,10.82l2.31,2.31A12.237,12.237,0,0,0,5,17,12,12,0,1,0,17,5a12.237,12.237,0,0,0-3.87.63l-2.3-2.3A14.994,14.994,0,1,1,2,17,15.166,15.166,0,0,1,3.32,10.82ZM8,17a9,9,0,1,1,9,9A9.007,9.007,0,0,1,8,17ZM9.5,7.25A2.25,2.25,0,1,1,7.25,5,2.247,2.247,0,0,1,9.5,7.25Z" transform="translate(1 1)" fill="#242c36"/>
</svg>
