<svg xmlns="http://www.w3.org/2000/svg" width="148.453" height="121.888" viewBox="0 0 148.453 121.888">
  <g id="Groupe_53078" data-name="Groupe 53078" transform="translate(9259.094 3855.75)">
    <g id="Oval" transform="translate(-9259.094 -3855.75)" fill="#fff" stroke="#5c626a" stroke-miterlimit="10" stroke-width="2">
      <circle cx="53.131" cy="53.131" r="53.131" stroke="none"/>
      <circle cx="53.131" cy="53.131" r="52.131" fill="none"/>
    </g>
    <path id="Tracé_42175" data-name="Tracé 42175" d="M717.108,67.788a25.785,25.785,0,1,0,25.785,25.785,25.8,25.8,0,0,0-25.785-25.785Zm0,49.531h0a23.747,23.747,0,1,1,23.747-23.747,23.783,23.783,0,0,1-23.747,23.747ZM704.1,98.117H731.37a14.219,14.219,0,0,1-27.273,0Zm17.87-8.935h0l-1.724-1.722L725.1,82.6l4.86,4.86-1.722,1.722L725.1,85.97Zm-14.656,0h0l-1.645-1.722,4.778-4.86h.082l4.777,4.86-1.722,1.722-3.055-3.212Z" transform="translate(-9922.287 -3896.973)" fill="#5c626a"/>
    <g id="Groupe_53077" data-name="Groupe 53077">
      <g id="Oval_Copy" data-name="Oval Copy" transform="translate(-9176.272 -3799.494)" fill="#fff" stroke="#a7aaae" stroke-miterlimit="10" stroke-width="1">
        <circle cx="32.816" cy="32.816" r="32.816" stroke="none"/>
        <circle cx="32.816" cy="32.816" r="32.316" fill="none"/>
      </g>
      <path id="Tracé_42176" data-name="Tracé 42176" d="M706.949,67.788a15.626,15.626,0,1,0,15.626,15.626,15.638,15.638,0,0,0-15.626-15.626Zm0,30.017h0A14.391,14.391,0,1,1,721.34,83.414a14.413,14.413,0,0,1-14.391,14.391Zm-7.885-11.637h16.528a8.617,8.617,0,0,1-16.528,0Zm10.83-5.415h0l-1.045-1.044,2.943-2.945,2.945,2.945-1.044,1.044-1.9-1.947Zm-8.882,0h0l-1-1.044,2.9-2.945h.05l2.9,2.945-1.044,1.044-1.852-1.947Z" transform="translate(-9850.406 -3850.093)" fill="#5c626a"/>
    </g>
  </g>
</svg>
