<svg xmlns="http://www.w3.org/2000/svg" width="20.77" height="18.002" viewBox="0 0 20.77 18.002">
  <path id="send" d="M35.932,55.761l-.007,0L17.443,48.092a1.02,1.02,0,0,0-.961.093,1.067,1.067,0,0,0-.482.891v4.9A1.039,1.039,0,0,0,16.845,55l10.08,1.864a.173.173,0,0,1,0,.34l-10.08,1.864A1.039,1.039,0,0,0,16,60.086v4.9a1.02,1.02,0,0,0,.458.852,1.036,1.036,0,0,0,.572.173,1.063,1.063,0,0,0,.412-.084l18.481-7.622.008,0a1.385,1.385,0,0,0,0-2.545Z" transform="translate(-16 -48.013)" fill="#fff"/>
</svg>
