<svg xmlns="http://www.w3.org/2000/svg" width="89.83" height="89.83" viewBox="0 0 89.83 89.83">
  <path id="Tracé_42149" data-name="Tracé 42149" d="M736.238,67.788A44.915,44.915,0,1,0,781.153,112.7a44.949,44.949,0,0,0-44.915-44.915Zm0,86.28h0A41.365,41.365,0,1,1,777.6,112.7a41.429,41.429,0,0,1-41.365,41.365Zm-22.664-33.449h47.507a24.769,24.769,0,0,1-47.507,0ZM744.7,105.055h0l-3-3,8.461-8.465,8.466,8.465-3,3-5.465-5.6Zm-25.53,0h0l-2.865-3,8.323-8.465h.144l8.322,8.465-3,3-5.322-5.6Z" transform="translate(-691.323 -67.788)" fill="#a7aaae"/>
</svg>
