<svg id="motion_photos_on_black_24dp" xmlns="http://www.w3.org/2000/svg" width="24" height="24" viewBox="0 0 24 24">
  <rect id="Rectangle_1874" data-name="Rectangle 1874" width="24" height="24" fill="none"/>
  <path id="Tracé_19677" data-name="Tracé 19677" d="M2.88,7.88,4.42,9.42A8.158,8.158,0,0,0,4,12a8,8,0,1,0,8-8,8.158,8.158,0,0,0-2.58.42L7.89,2.89A10,10,0,1,1,2,12,10.11,10.11,0,0,1,2.88,7.88ZM6,12a6,6,0,1,1,6,6A6,6,0,0,1,6,12ZM7,5.5A1.5,1.5,0,1,1,5.5,4,1.5,1.5,0,0,1,7,5.5Z" fill="#5c626a"/>
</svg>
