<svg id="account_circle-24px" xmlns="http://www.w3.org/2000/svg" width="92" height="92" viewBox="0 0 92 92">
  <path id="Tracé_2166" data-name="Tracé 2166" d="M0,0H92V92H0Z" fill="none"/>
  <g id="Groupe_53071" data-name="Groupe 53071" transform="translate(-37.371 -57.653)">
    <g id="Groupe_53075" data-name="Groupe 53075">
      <path id="Tracé_42545" data-name="Tracé 42545" d="M45,129.664q7.829-13.7,15.662-27.4,8.411-14.638,16.884-29.241A6.476,6.476,0,0,1,86.3,70.229a6.342,6.342,0,0,1,2.615,2.514q6.548,11.339,13.1,22.677a1.557,1.557,0,0,1-.374,2.3c-.79.479-1.646.167-2.241-.822-.116-.193-.224-.391-.337-.586Q92.982,85.789,86.9,75.263a12.637,12.637,0,0,0-.886-1.39,3.385,3.385,0,0,0-5.428,0,8.441,8.441,0,0,0-.613.942q-15.686,27.16-31.368,54.323c-1.158,2.007-.912,3.953.791,5.02a4.717,4.717,0,0,0,2.332.61c3.78.063,7.561.033,11.342.033q25.8,0,51.6.008a3.836,3.836,0,0,0,3.189-1.172,3.479,3.479,0,0,0,.213-4.378q-3.35-5.821-6.714-11.633-2.833-4.906-5.665-9.812a3.649,3.649,0,0,1-.332-.75,1.462,1.462,0,0,1,2.447-1.444,3.4,3.4,0,0,1,.478.669q6.248,10.818,12.484,21.644a6.46,6.46,0,0,1-2.037,8.9,6.658,6.658,0,0,1-3.716.982c-3.706-.014-7.411,0-11.117,0q-26.027,0-52.054.008a6.538,6.538,0,0,1-6.022-3.1,15.884,15.884,0,0,1-.83-1.752Z" fill="#242c36"/>
      <path id="Tracé_42546" data-name="Tracé 42546" d="M232.582,199.652c0,2.227.037,4.454-.008,6.68a4.769,4.769,0,0,1-7.27,4.148,4.473,4.473,0,0,1-2.311-3.967c-.046-4.628-.069-9.257.006-13.884a4.707,4.707,0,0,1,4.8-4.586,4.8,4.8,0,0,1,4.781,4.78c.036,1.15.011,2.3.011,3.452q0,1.689,0,3.377Zm-3-.042c0-2.2.016-4.4-.007-6.607a1.8,1.8,0,1,0-3.591.005c-.017,4.4-.028,8.809.023,13.213a2.606,2.606,0,0,0,.663,1.507,1.486,1.486,0,0,0,1.8.294,1.822,1.822,0,0,0,1.105-1.806C229.584,204.014,229.579,201.812,229.579,199.61Z" transform="translate(-144.468 -96.251)" fill="#f8bd25"/>
      <path id="Tracé_42547" data-name="Tracé 42547" d="M227.891,339.875a4.8,4.8,0,1,1,4.778-4.784A4.853,4.853,0,0,1,227.891,339.875Zm-.025-3.011a1.791,1.791,0,1,0-1.789-1.773A1.851,1.851,0,0,0,227.866,336.864Z" transform="translate(-144.558 -211.717)" fill="#f8bd25"/>
      <path id="Tracé_42548" data-name="Tracé 42548" d="M352.943,235.021a1.474,1.474,0,1,1-.026,2.948,1.474,1.474,0,0,1,.026-2.948Z" transform="translate(-248.795 -134.391)" fill="#242c36"/>
    </g>
  </g>
</svg>
