<svg xmlns="http://www.w3.org/2000/svg" width="24" height="24" viewBox="0 0 24 24">
  <g id="Twitter_Social_Icon_Circle_Color" transform="translate(0 0)">
    <g id="Dark_Blue" transform="translate(0 0)">
      <circle id="Ellipse_923" data-name="Ellipse 923" cx="12" cy="12" r="12" fill="#1da1f2"/>
    </g>
    <g id="Logo__x2014__FIXED" transform="translate(5.382 6.87)">
      <path id="Tracé_42483" data-name="Tracé 42483" d="M94.122,125.96a8.176,8.176,0,0,0,8.232-8.232c0-.126,0-.252-.006-.372a5.927,5.927,0,0,0,1.446-1.5,5.872,5.872,0,0,1-1.662.456,2.891,2.891,0,0,0,1.272-1.6,5.859,5.859,0,0,1-1.836.7,2.895,2.895,0,0,0-5,1.98,2.651,2.651,0,0,0,.078.66,8.208,8.208,0,0,1-5.964-3.024,2.892,2.892,0,0,0,.9,3.858,2.842,2.842,0,0,1-1.308-.36v.036a2.9,2.9,0,0,0,2.322,2.838,2.884,2.884,0,0,1-.762.1,2.763,2.763,0,0,1-.546-.054,2.889,2.889,0,0,0,2.7,2.01,5.816,5.816,0,0,1-3.594,1.236,5.261,5.261,0,0,1-.69-.042,8.061,8.061,0,0,0,4.422,1.308" transform="translate(-89.7 -114.5)" fill="#fff"/>
    </g>
  </g>
</svg>
